<?xml version="1.0" encoding="UTF-8"?>
<svg id="Lager_1" data-name="Lager 1" xmlns="http://www.w3.org/2000/svg" viewBox="0 0 174.15 101.59">
  <rect x="14.51" y="14.51" width="14.51" height="14.51"/>
  <rect y="0" width="14.51" height="14.51"/>
  <polygon points="58.05 72.56 58.05 58.05 43.54 58.05 43.54 72.56 29.02 72.56 29.02 58.05 14.51 58.05 14.51 72.56 14.51 87.07 0 87.07 0 101.59 14.51 101.59 29.02 101.59 43.54 101.59 58.05 101.59 58.05 87.07 72.56 87.07 72.56 72.56 58.05 72.56"/>
  <polygon points="43.54 29.02 58.05 29.02 58.05 14.51 58.05 0 43.54 0 29.02 0 29.02 14.51 43.54 14.51 43.54 29.02"/>
  <polygon points="101.59 14.51 101.59 29.02 116.1 29.02 116.1 14.51 116.1 0 101.59 0 87.07 0 72.56 0 72.56 14.51 87.07 14.51 101.59 14.51"/>
  <rect x="29.02" y="43.54" width="14.51" height="14.51"/>
  <polygon points="87.07 43.54 87.07 29.02 72.56 29.02 72.56 43.54 72.56 58.05 87.07 58.05 87.07 43.54"/>
  <rect x="130.61" y="0" width="14.51" height="14.51"/>
  <polygon points="145.12 29.02 145.12 43.54 130.61 43.54 116.1 43.54 116.1 58.05 130.61 58.05 145.12 58.05 159.64 58.05 159.64 43.54 159.64 29.02 159.64 14.51 145.12 14.51 145.12 29.02"/>
  <polygon points="145.12 72.56 130.61 72.56 116.1 72.56 101.59 72.56 87.07 72.56 87.07 87.07 72.56 87.07 72.56 101.59 87.07 101.59 101.59 101.59 116.1 101.59 130.61 101.59 145.12 101.59 159.64 101.59 174.15 101.59 174.15 87.07 174.15 72.56 159.64 72.56 145.12 72.56"/>
  <rect x="159.64" y="0" width="14.51" height="14.51"/>
</svg>